HIERARCHY
ROOT hip
{
	OFFSET 0.000000 0.000000 0.000000 
	CHANNELS 6 Xposition Yposition Zposition Xrotation Zrotation Yrotation
	JOINT abdomen
	{
		OFFSET 0.000000 3.402643 0.000000 
		CHANNELS 3 Xrotation Zrotation Yrotation
		JOINT chest
		{
			OFFSET 0.000000 8.438565 -0.680529 
			CHANNELS 3 Xrotation Zrotation Yrotation
			JOINT neck
			{
				OFFSET 0.000000 10.207942 -0.272212 
				CHANNELS 3 Xrotation Zrotation Yrotation
				JOINT head
				{
					OFFSET 0.000000 3.130431 0.000000 
					CHANNELS 3 Xrotation Zrotation Yrotation
					End Site
					{
						OFFSET 0.000000 3.130435 0.000000 
					}
				}
			}
			JOINT lCollar
			{
				OFFSET 3.470700 6.669187 -0.816635 
				CHANNELS 3 Yrotation Zrotation Xrotation
				JOINT lShldr
				{
					OFFSET 3.198488 0.000000 0.000000 
					CHANNELS 3 Zrotation Yrotation Xrotation
					JOINT lForeArm
					{
						OFFSET 10.139888 0.000000 0.000000 
						CHANNELS 3 Yrotation Zrotation Xrotation
						JOINT lHand
						{
							OFFSET 8.370511 0.000000 0.000000 
							CHANNELS 3 Zrotation Yrotation Xrotation
							End Site
							{
								OFFSET 4.083176 0.000000 0.000000 
							}
						}
					}
				}
			}
			JOINT rCollar
			{
				OFFSET -3.470700 6.669187 -0.816635 
				CHANNELS 3 Yrotation Zrotation Xrotation
				JOINT rShldr
				{
					OFFSET -3.198488 0.000000 0.000000 
					CHANNELS 3 Zrotation Yrotation Xrotation
					JOINT rForeArm
					{
						OFFSET -10.139888 0.000000 0.000000 
						CHANNELS 3 Yrotation Zrotation Xrotation
						JOINT rHand
						{
							OFFSET -8.370511 0.000000 0.000000 
							CHANNELS 3 Zrotation Yrotation Xrotation
							End Site
							{
								OFFSET -4.083176 0.000000 0.000000 
							}
						}
					}
				}
			}
		}
	}
	JOINT lThigh
	{
		OFFSET 5.308129 -1.633274 1.361059 
		CHANNELS 3 Xrotation Zrotation Yrotation
		JOINT lShin
		{
			OFFSET -2.041588 -20.007561 0.000000 
			CHANNELS 3 Xrotation Zrotation Yrotation
			JOINT lFoot
			{
				OFFSET 0.000000 -19.190928 -1.224953 
				CHANNELS 3 Xrotation Yrotation Zrotation
				End Site
				{
					OFFSET 0.000000 -2.449906 4.627600 
				}
			}
		}
	}
	JOINT rThigh
	{
		OFFSET -5.308129 -1.633274 1.361059 
		CHANNELS 3 Xrotation Zrotation Yrotation
		JOINT rShin
		{
			OFFSET 2.041588 -20.007561 0.000000 
			CHANNELS 3 Xrotation Zrotation Yrotation
			JOINT rFoot
			{
				OFFSET 0.000000 -19.190928 -1.224953 
				CHANNELS 3 Xrotation Yrotation Zrotation
				End Site
				{
					OFFSET 0.000000 -2.449906 4.627600 
				}
			}
		}
	}
}
MOTION
Frames: 16
Frame Time: 0.016667
-0.864093 44.618195 3.527745 -1.174550 -3.866380 -4.461990 -18.498600 1.711780 0.868161 19.687300 1.367030 0.653091 12.612900 6.309340 -1.962200 10.708800 6.320130 -0.547335 2.000000 -2.000000 0.000000 -88.171501 10.181000 -165.384003 54.424301 -0.294388 0.111253 0.062482 -0.060043 -155.182999 -2.000000 2.000000 0.000000 -91.616096 -164.218994 3.934790 -62.344299 0.278307 0.121102 -0.057778 0.032749 -148.699005 -5.051808 3.243408 -7.265342 27.034248 3.757072 1.775559 -25.285315 13.137978 6.264040 5.873779 1.932788 0.024267 3.746019 -4.281847 -0.115717 -15.051760 -8.452921 -2.523744 
-0.865107 44.622047 3.502154 -1.193980 -3.758950 -4.550790 -18.333000 1.746620 0.850308 19.872801 1.562390 0.645423 12.767600 6.071410 -1.890860 10.756700 6.241810 -0.512004 2.000000 -2.000000 0.000000 -88.044197 10.133600 -164.768005 56.270000 -0.290765 0.113756 0.063460 -0.053150 -156.266998 -2.000000 2.000000 0.000000 -91.508202 -163.604004 3.679370 -65.049400 0.272522 0.123963 -0.057806 0.032883 -148.748001 -5.030782 3.125458 -7.248405 26.967060 3.746029 1.783173 -25.260361 13.203524 6.302752 5.850221 1.812715 0.126591 3.744895 -4.284337 -0.145186 -14.999414 -8.469252 -2.516071 
-0.861142 44.622429 3.498458 -1.174480 -3.817560 -4.531340 -18.420300 1.677690 0.860804 19.677500 1.376790 0.642943 13.298100 5.970800 -1.877780 10.903300 6.191130 -0.521427 2.000000 -2.000000 0.000000 -87.623802 10.477300 -163.949005 58.848202 -0.285574 0.117055 0.064579 -0.056235 -157.438995 -2.000000 2.000000 0.000000 -91.498299 -163.350006 4.108430 -67.344299 0.267512 0.126173 -0.057936 0.033498 -148.973007 -5.060525 3.211854 -7.167346 27.005438 3.754256 1.784771 -25.253307 13.139626 6.247170 5.833865 1.870398 0.111942 3.733540 -4.280777 -0.135477 -15.003388 -8.485196 -2.514903 
-0.857176 44.622822 3.494751 -1.154990 -3.876170 -4.511930 -18.507601 1.608820 0.871502 19.492001 1.200960 0.641750 13.838600 5.859160 -1.875730 11.049900 6.140430 -0.521338 2.000000 -2.000000 0.000000 -87.193703 10.811200 -163.139008 61.436100 -0.280219 0.120129 0.065771 -0.059322 -158.621002 -2.000000 2.000000 0.000000 -91.498199 -163.104004 4.537520 -69.649002 0.262396 0.128189 -0.058068 0.034113 -149.197006 -5.092151 3.292509 -7.076338 27.006435 3.746488 1.782951 -25.223021 13.064851 6.215786 5.824714 1.938188 0.089318 3.733698 -4.280639 -0.135463 -15.007335 -8.501173 -2.512314 
-0.855131 44.624104 3.479260 -1.164760 -3.866390 -4.550530 -18.332399 1.617220 0.810925 19.765400 1.308470 0.616702 14.149800 5.596200 -1.800880 11.136800 6.042180 -0.494670 2.000000 -2.000000 0.000000 -87.095703 10.587300 -162.796997 63.408699 -0.276047 0.122307 0.066677 -0.061551 -159.479996 -2.000000 2.000000 0.000000 -91.860001 -163.464005 5.290360 -71.377502 0.258507 0.129565 -0.058389 0.035554 -149.723999 -5.082267 3.282976 -7.037708 26.968332 3.739205 1.791318 -25.156677 13.051741 6.232743 5.816402 1.918697 0.135462 3.732424 -4.281249 -0.125786 -14.987153 -8.538737 -2.519907 
-0.853085 44.625259 3.463746 -1.174540 -3.856610 -4.598900 -18.157101 1.625670 0.750521 20.038900 1.406190 0.583001 14.460800 5.324230 -1.730350 11.233600 5.953500 -0.466071 2.000000 -2.000000 0.000000 -86.997704 10.363500 -162.464005 65.381401 -0.271803 0.124341 0.067606 -0.063741 -160.330002 -2.000000 2.000000 0.000000 -92.211998 -163.832993 6.033450 -73.106003 0.254580 0.130823 -0.058723 0.036993 -150.251999 -5.108613 3.268859 -6.987815 26.996235 3.749156 1.783650 -25.130375 13.091784 6.220453 5.805540 1.906900 0.182340 3.731807 -4.282287 -0.135630 -14.984595 -8.580547 -2.542620 
-0.847489 44.621662 3.446165 -1.243110 -3.895570 -4.612990 -18.137600 1.622370 0.741785 19.990101 1.386650 0.581996 15.024400 5.130570 -1.696950 11.399600 5.892840 -0.456341 2.000000 -2.000000 0.000000 -86.733498 10.218600 -161.779999 67.969299 -0.266133 0.126785 0.068692 -0.066192 -161.287003 -2.000000 2.000000 0.000000 -92.417297 -163.959000 6.629470 -75.557198 0.248948 0.132403 -0.059076 0.038454 -150.789001 -5.046409 3.305694 -6.950603 27.035585 3.749775 1.783533 -25.153151 13.025888 6.190825 5.844779 1.935128 0.218521 3.743178 -4.285837 -0.145337 -14.973087 -8.603361 -2.543210 
-0.841892 44.618195 3.428584 -1.311690 -3.934520 -4.626990 -18.108299 1.619140 0.733253 19.941200 1.367110 0.571258 15.578100 4.937370 -1.668600 11.555600 5.822650 -0.458987 2.000000 -2.000000 0.000000 -86.469200 10.083400 -161.095993 70.547401 -0.260380 0.128963 0.069818 -0.068624 -162.244003 -2.000000 2.000000 0.000000 -92.612900 -164.084000 7.225480 -78.008301 0.243255 0.133740 -0.059437 0.039887 -151.315994 -5.056846 3.352705 -6.900412 27.114719 3.750776 1.792951 -25.113972 12.955196 6.137968 5.894671 1.964752 0.245974 3.742998 -4.285994 -0.145353 -14.945212 -8.634498 -2.546333 
-0.834975 44.617802 3.419001 -1.331250 -3.924720 -4.674700 -18.176201 1.591850 0.771436 19.794701 1.298710 0.588203 16.077700 4.837910 -1.664280 11.702400 5.791320 -0.457791 2.000000 -2.000000 0.000000 -86.205101 9.977240 -160.529999 72.608002 -0.255715 0.130516 0.070420 -0.069882 -162.742004 -2.000000 2.000000 0.000000 -92.681396 -164.123001 7.586900 -79.922401 0.238772 0.134614 -0.059636 0.040654 -151.598999 -4.991594 3.319630 -6.855208 27.083864 3.760771 1.795515 -25.156309 12.979412 6.161933 5.901026 1.934632 0.282541 3.741933 -4.286423 -0.135657 -14.927273 -8.645443 -2.550357 
-0.828056 44.617542 3.409419 -1.341020 -3.914950 -4.723090 -18.234200 1.558800 0.822097 19.648199 1.220550 0.605653 16.577101 4.738190 -1.661460 11.858800 5.750150 -0.466861 2.000000 -2.000000 0.000000 -85.950699 9.871090 -159.962997 74.658699 -0.251020 0.131894 0.071033 -0.071135 -163.240005 -2.000000 2.000000 0.000000 -92.740097 -164.160995 7.938560 -81.836502 0.234263 0.135339 -0.059832 0.041394 -151.873001 -4.976279 3.302327 -6.826527 27.085646 3.746826 1.792279 -25.166578 13.001314 6.177945 5.903871 1.914901 0.319765 3.740555 -4.286622 -0.116198 -14.899555 -8.653834 -2.552145 
-0.820094 44.618439 3.401533 -1.360570 -3.895390 -4.761280 -18.253300 1.541130 0.858322 19.599400 1.191240 0.624633 17.065300 4.630650 -1.644940 11.995600 5.709280 -0.468324 2.000000 -2.000000 0.000000 -85.666702 9.482020 -159.268997 77.207603 -0.245121 0.133372 0.071657 -0.072382 -163.738007 -2.000000 2.000000 0.000000 87.122803 -15.557300 -171.524002 -84.209503 0.228643 0.136027 -0.059924 0.041738 -152.000000 -4.977887 3.275068 -6.787544 27.095587 3.746188 1.792049 -25.169907 13.015577 6.187140 5.901533 1.873657 0.373909 3.734898 -4.280094 -0.145148 -14.900915 -8.651605 -2.550879 
-0.812134 44.619473 3.393635 -1.370320 -3.875850 -4.790380 -18.272400 1.517630 0.906770 19.550600 1.152170 0.634069 17.563101 4.522500 -1.628650 12.132300 5.668410 -0.469977 2.000000 -2.000000 0.000000 -85.392502 9.092940 -158.574997 79.766197 -0.239140 0.134589 0.072279 -0.073600 -164.225998 -2.000000 2.000000 0.000000 86.985703 -15.275400 -170.996002 -86.582603 0.222999 0.136481 -0.060024 0.042107 -152.136993 -4.976837 3.250236 -6.738921 27.065699 3.748690 1.792800 -25.149523 13.024228 6.212747 5.900637 1.835629 0.399011 3.733997 -4.279877 -0.125648 -14.901994 -8.679509 -2.532880 
-0.806325 44.617680 3.392793 -1.389930 -3.895340 -4.837420 -18.233101 1.528160 0.934916 19.589701 1.132650 0.654715 17.893999 4.460940 -1.596260 12.239900 5.647330 -0.452382 2.000000 -2.000000 0.000000 -85.264999 8.644800 -158.085007 81.670403 -0.234655 0.135322 0.072720 -0.074449 -164.567993 -2.000000 2.000000 0.000000 86.789902 -14.964100 -170.477005 -88.350098 0.218785 0.136668 -0.060227 0.042846 -152.410004 -4.946052 3.271410 -6.691143 27.115875 3.744816 1.801300 -25.161283 13.006869 6.191216 5.916101 1.842855 0.430511 3.738822 -4.276167 -0.135011 -14.899702 -8.672103 -2.562036 
-0.800514 44.615879 3.391973 -1.419330 -3.914820 -4.874010 -18.203699 1.535190 0.953739 19.618999 1.113130 0.665380 18.233700 4.390230 -1.556450 12.347700 5.635910 -0.443220 2.000000 -2.000000 0.000000 -85.137398 8.196690 -157.585999 83.584503 -0.230126 0.135907 0.073154 -0.075271 -164.899994 -2.000000 2.000000 0.000000 86.594200 -14.652800 -169.968994 -90.137199 0.214545 0.117194 -0.060441 0.043609 -152.692993 -4.906586 3.284514 -6.624099 27.115576 3.747153 1.801905 -25.159731 12.989361 6.179694 5.936867 1.859987 0.483418 3.743700 -4.284877 -0.135502 -14.904463 -8.690246 -2.551029 
-0.790011 44.613823 3.391602 -1.458480 -3.914750 -4.988530 -18.164000 1.540870 1.024810 19.658001 1.093620 0.695742 18.756001 4.218960 -1.513910 12.533200 5.574880 -0.414105 2.000000 -2.000000 0.000000 -85.029297 7.543570 -157.048004 85.928299 -0.224557 0.136418 0.073840 -0.076548 -165.417999 -2.000000 2.000000 0.000000 86.310501 -14.205000 -169.352005 -92.305099 0.209743 0.117091 -0.060696 0.044503 -153.024994 -4.904408 3.261575 -6.575651 27.181925 3.761689 1.785356 -25.220272 13.049567 6.205792 5.953498 1.837813 0.600412 3.747209 -4.281812 -0.135190 -14.872059 -8.687712 -2.545734 
-0.779508 44.611759 3.391231 -1.497640 -3.914680 -5.093280 -18.124500 1.552390 1.083410 19.697100 1.074100 0.735843 19.267599 4.039850 -1.468390 12.708800 5.514010 -0.396078 2.000000 -2.000000 0.000000 -84.921204 6.880690 -156.507996 88.262199 -0.218995 0.136699 0.074524 -0.077795 -165.925995 -2.000000 2.000000 0.000000 86.026703 -13.757200 -168.755997 -94.473099 0.204948 0.116808 -0.060949 0.045370 -153.348007 -4.838382 3.232996 -6.549628 27.183254 3.754378 1.793411 -25.299622 13.067058 6.229350 5.987023 1.799175 0.697432 3.740341 -4.287810 -0.135798 -14.857244 -8.704540 -2.521242 
